<?xml version="1.0" encoding="UTF-8" standalone="no"?>
<!-- Created with Inkscape (http://www.inkscape.org/) -->

<svg
   xmlns:dc="http://purl.org/dc/elements/1.1/"
   xmlns:cc="http://creativecommons.org/ns#"
   xmlns:rdf="http://www.w3.org/1999/02/22-rdf-syntax-ns#"
   xmlns:svg="http://www.w3.org/2000/svg"
   xmlns="http://www.w3.org/2000/svg"
   xmlns:sodipodi="http://sodipodi.sourceforge.net/DTD/sodipodi-0.dtd"
   xmlns:inkscape="http://www.inkscape.org/namespaces/inkscape"
   width="816.58063"
   height="510.65793"
   id="svg3295"
   version="1.1"
   inkscape:version="0.48.4 r9939"
   sodipodi:docname="New document 2">
  <defs
     id="defs3297" />
  <sodipodi:namedview
     id="base"
     pagecolor="#ffffff"
     bordercolor="#666666"
     borderopacity="1.0"
     inkscape:pageopacity="0.0"
     inkscape:pageshadow="2"
     inkscape:zoom="0.35"
     inkscape:cx="404.0018"
     inkscape:cy="235.32897"
     inkscape:document-units="px"
     inkscape:current-layer="layer1"
     showgrid="false"
     fit-margin-top="0"
     fit-margin-left="0"
     fit-margin-right="0"
     fit-margin-bottom="0"
     inkscape:window-width="494"
     inkscape:window-height="423"
     inkscape:window-x="785"
     inkscape:window-y="27"
     inkscape:window-maximized="0" />
  <metadata
     id="metadata3300">
    <rdf:RDF>
      <cc:Work
         rdf:about="">
        <dc:format>image/svg+xml</dc:format>
        <dc:type
           rdf:resource="http://purl.org/dc/dcmitype/StillImage" />
        <dc:title></dc:title>
      </cc:Work>
    </rdf:RDF>
  </metadata>
  <g
     inkscape:label="Layer 1"
     inkscape:groupmode="layer"
     id="layer1"
     transform="translate(-65.995412,-257.03321)">
    <text
       xml:space="preserve"
       style="font-size:34.87845612px;font-style:normal;font-weight:normal;line-height:125%;letter-spacing:0px;word-spacing:0px;fill:#8d0000;fill-opacity:1;stroke:none;font-family:sans-serif"
       x="358.66052"
       y="348.21024"
       id="text4223"
       sodipodi:linespacing="125%"><tspan
         sodipodi:role="line"
         id="tspan4225"
         x="358.66052"
         y="348.21024"
         style="font-size:61.0372963px;font-style:normal;font-variant:normal;font-weight:600;font-stretch:normal;fill:#8d0000;fill-opacity:1;font-family:Source Sans Pro;-inkscape-font-specification:Source Sans Pro">Register</tspan></text>
    <path
       sodipodi:type="arc"
       style="fill:#e5e5e5;fill-opacity:1;stroke:none"
       id="path4227"
       sodipodi:cx="134.74345"
       sodipodi:cy="496.48898"
       sodipodi:rx="28.791338"
       sodipodi:ry="28.791338"
       d="m 163.53479,496.48898 c 0,15.90102 -12.89032,28.79134 -28.79134,28.79134 -15.90101,0 -28.79133,-12.89032 -28.79133,-28.79134 0,-15.90101 12.89032,-28.79133 28.79133,-28.79133 15.90102,0 28.79134,12.89032 28.79134,28.79133 z"
       transform="matrix(0.87196137,0,0,0.87196137,5.8022585,-19.954168)" />
    <path
       transform="matrix(1.3602597,0,0,1.3602597,4.2758585,-273.4351)"
       sodipodi:type="arc"
       style="fill:#b0b0b0;fill-opacity:1;stroke:none"
       id="path4227-8"
       sodipodi:cx="134.74345"
       sodipodi:cy="496.48898"
       sodipodi:rx="28.791338"
       sodipodi:ry="28.791338"
       d="m 163.53479,496.48898 c 0,15.90102 -12.89032,28.79134 -28.79134,28.79134 -15.90101,0 -28.79133,-12.89032 -28.79133,-28.79134 0,-15.90101 12.89032,-28.79133 28.79133,-28.79133 15.90102,0 28.79134,12.89032 28.79134,28.79133 z" />
    <path
       transform="matrix(1.0463536,0,0,1.0463536,7.4088585,-131.64295)"
       sodipodi:type="arc"
       style="fill:#8a8a8a;fill-opacity:1;stroke:none"
       id="path4227-8-3"
       sodipodi:cx="134.74345"
       sodipodi:cy="496.48898"
       sodipodi:rx="28.791338"
       sodipodi:ry="28.791338"
       d="m 163.53479,496.48898 c 0,15.90102 -12.89032,28.79134 -28.79134,28.79134 -15.90101,0 -28.79133,-12.89032 -28.79133,-28.79134 0,-15.90101 12.89032,-28.79133 28.79133,-28.79133 15.90102,0 28.79134,12.89032 28.79134,28.79133 z" />
    <path
       sodipodi:type="arc"
       style="fill:#fafafa;fill-opacity:1;stroke:none"
       id="path4276"
       sodipodi:cx="154.8974"
       sodipodi:cy="545.43427"
       sodipodi:rx="20.15394"
       sodipodi:ry="20.15394"
       d="m 175.05134,545.43427 c 0,11.13071 -9.02323,20.15394 -20.15394,20.15394 -11.13071,0 -20.15394,-9.02323 -20.15394,-20.15394 0,-11.13072 9.02323,-20.15395 20.15394,-20.15395 11.13071,0 20.15394,9.02323 20.15394,20.15395 z"
       transform="matrix(0.87196137,0,0,0.87196137,34.923858,-73.678748)" />
    <path
       sodipodi:type="arc"
       style="fill:#e0e0e0;fill-opacity:1;stroke:none"
       id="path4278"
       sodipodi:cx="382.34897"
       sodipodi:cy="571.34644"
       sodipodi:rx="62.189289"
       sodipodi:ry="62.189289"
       d="m 444.53826,571.34644 c 0,34.34619 -27.8431,62.18928 -62.18929,62.18928 -34.3462,0 -62.18929,-27.84309 -62.18929,-62.18928 0,-34.3462 27.84309,-62.18929 62.18929,-62.18929 34.34619,0 62.18929,27.84309 62.18929,62.18929 z"
       transform="matrix(0.87196137,0,0,0.87196137,-80.509,-88.500068)" />
    <path
       sodipodi:type="arc"
       style="fill:#676767;fill-opacity:1;stroke:none"
       id="path4280"
       sodipodi:cx="185.99203"
       sodipodi:cy="566.73987"
       sodipodi:rx="29.942991"
       sodipodi:ry="29.942991"
       d="m 215.93503,566.73987 c 0,16.53706 -13.40594,29.94299 -29.943,29.94299 -16.53705,0 -29.94299,-13.40593 -29.94299,-29.94299 0,-16.53706 13.40594,-29.94299 29.94299,-29.94299 16.53706,0 29.943,13.40593 29.943,29.94299 z"
       transform="matrix(0.87196137,0,0,0.87196137,10.370758,-16.941608)" />
    <path
       style="fill:none;stroke:#000000;stroke-width:1.54481339;stroke-linecap:butt;stroke-linejoin:miter;stroke-miterlimit:4;stroke-opacity:1;stroke-dasharray:none"
       d="m 304.56616,381.40642 c -12.1276,-14.58678 -32.2573,-26.45025 -55.5634,-26.45025 -38.7404,0 -30.89,19.17312 -53.2555,34.08358 -11.6422,7.76141 -29.4884,-10.09828 -44.5572,4.97052 -9.5451,9.54502 8.2902,22.84679 11.3612,25.91775 6.5174,6.51739 21.0197,-10.57855 27.3378,-4.26049 25.1365,25.13646 29.2323,47.04249 79.1734,47.04249 36.5636,0 59.8165,-60.63768 35.5037,-81.3036 z"
       id="path4286"
       inkscape:connector-curvature="0" />
    <path
       style="fill:none;stroke:#000000;stroke-width:3.08962679;stroke-linecap:butt;stroke-linejoin:miter;stroke-miterlimit:4;stroke-opacity:1;stroke-dasharray:none"
       d="m 314.49426,406.99631 309.1324,0"
       id="path4288"
       inkscape:connector-curvature="0" />
    <path
       sodipodi:type="arc"
       style="fill:#676767;fill-opacity:1;stroke:none"
       id="path4308"
       sodipodi:cx="893.11871"
       sodipodi:cy="505.25238"
       sodipodi:rx="68.397377"
       sodipodi:ry="68.397377"
       d="m 961.51609,505.25238 c 0,37.77483 -30.62255,68.39738 -68.39738,68.39738 -37.77482,0 -68.39737,-30.62255 -68.39737,-68.39738 0,-37.77483 30.62255,-68.39738 68.39737,-68.39738 37.77483,0 68.39738,30.62255 68.39738,68.39738 z"
       transform="matrix(0.87196137,0,0,0.87196137,12.488358,-80.366448)" />
    <path
       sodipodi:type="arc"
       style="fill:#c2c2c2;fill-opacity:1;stroke:none"
       id="path4312"
       sodipodi:cx="881.97534"
       sodipodi:cy="594.6803"
       sodipodi:rx="34.248859"
       sodipodi:ry="34.248859"
       d="m 916.2242,594.6803 c 0,18.91512 -15.33374,34.24886 -34.24886,34.24886 -18.91512,0 -34.24886,-15.33374 -34.24886,-34.24886 0,-18.91512 15.33374,-34.24886 34.24886,-34.24886 18.91512,0 34.24886,15.33374 34.24886,34.24886 z"
       transform="matrix(0.87196137,0,0,0.87196137,20.914758,-98.717948)" />
    <path
       sodipodi:type="arc"
       style="fill:#e7e7e7;fill-opacity:1;stroke:none"
       id="path4314"
       sodipodi:cx="833.10889"
       sodipodi:cy="427.85318"
       sodipodi:rx="47.681202"
       sodipodi:ry="47.681202"
       d="m 880.79009,427.85318 c 0,26.3336 -21.3476,47.6812 -47.6812,47.6812 -26.3336,0 -47.68121,-21.3476 -47.68121,-47.6812 0,-26.3336 21.34761,-47.6812 47.68121,-47.6812 26.3336,0 47.6812,21.3476 47.6812,47.6812 z"
       transform="matrix(0.87196137,0,0,0.87196137,5.8022585,-19.954168)" />
    <path
       style="fill:none;stroke:#000000;stroke-width:1.54481339;stroke-linecap:butt;stroke-linejoin:miter;stroke-miterlimit:4;stroke-opacity:1;stroke-dasharray:none"
       d="m 780.49076,387.41685 c -12.1277,-14.58687 -32.2574,-26.45034 -55.5634,-26.45034 -38.7405,0 -30.89,19.17321 -53.2556,34.08358 -11.6421,7.76141 -29.4884,-10.09819 -44.5572,4.97053 -9.545,9.54501 8.2903,22.84687 11.3612,25.91774 6.5174,6.51748 21.0199,-10.57846 27.3378,-4.2604 25.1366,25.13646 29.2324,47.0424 79.1734,47.0424 36.5636,0 59.8166,-60.63768 35.5038,-81.30351 z"
       id="path4286-6"
       inkscape:connector-curvature="0" />
    <path
       sodipodi:type="arc"
       style="fill:#cacaca;fill-opacity:1;stroke:none"
       id="path4316"
       sodipodi:cx="987.3515"
       sodipodi:cy="454.13672"
       sodipodi:rx="18.167536"
       sodipodi:ry="18.167536"
       d="m 1005.519,454.13672 c 0,10.03365 -8.13385,18.16753 -18.1675,18.16753 -10.03365,0 -18.16753,-8.13388 -18.16753,-18.16753 0,-10.03365 8.13388,-18.16754 18.16753,-18.16754 10.03365,0 18.1675,8.13389 18.1675,18.16754 z"
       transform="matrix(0.87196137,0,0,0.87196137,5.8022585,-19.954168)" />
    <path
       sodipodi:type="arc"
       style="fill:#cacaca;fill-opacity:1;stroke:none"
       id="path4318"
       sodipodi:cx="934.98529"
       sodipodi:cy="401.77051"
       sodipodi:rx="34.198689"
       sodipodi:ry="34.198689"
       d="m 969.18398,401.77051 c 0,18.88741 -15.31128,34.19869 -34.19869,34.19869 -18.88741,0 -34.19869,-15.31128 -34.19869,-34.19869 0,-18.88742 15.31128,-34.19869 34.19869,-34.19869 18.88741,0 34.19869,15.31127 34.19869,34.19869 z"
       transform="matrix(0.87196137,0,0,0.87196137,5.8022585,-19.954168)" />
    <path
       sodipodi:type="arc"
       style="fill:#4d4d4d;fill-opacity:1;stroke:none"
       id="path4320"
       sodipodi:cx="960.4118"
       sodipodi:cy="520.60651"
       sodipodi:rx="25.403576"
       sodipodi:ry="25.403576"
       d="m 985.81538,520.60651 c 0,14.03 -11.37357,25.40357 -25.40358,25.40357 -14.03,0 -25.40357,-11.37357 -25.40357,-25.40357 0,-14.03001 11.37357,-25.40358 25.40357,-25.40358 14.03001,0 25.40358,11.37357 25.40358,25.40358 z"
       transform="matrix(0.87196137,0,0,0.87196137,5.8022585,-19.954168)" />
    <text
       xml:space="preserve"
       style="font-size:34.87845612px;font-style:normal;font-weight:normal;line-height:125%;letter-spacing:0px;word-spacing:0px;fill:#000000;fill-opacity:1;stroke:none;font-family:sans-serif"
       x="407.93787"
       y="397.44986"
       id="text4322"
       sodipodi:linespacing="125%"><tspan
         sodipodi:role="line"
         id="tspan4324"
         x="407.93787"
         y="397.44986"
         style="font-style:normal;font-variant:normal;font-weight:600;font-stretch:normal;font-family:Source Sans Pro;-inkscape-font-specification:Source Sans Pro">MATCH?</tspan></text>
    <text
       xml:space="preserve"
       style="font-size:34.87845612px;font-style:normal;font-weight:normal;line-height:125%;letter-spacing:0px;word-spacing:0px;fill:#000000;fill-opacity:1;stroke:none;font-family:sans-serif"
       x="395.04712"
       y="588.41229"
       id="text4223-9"
       sodipodi:linespacing="125%"><tspan
         sodipodi:role="line"
         id="tspan4225-1"
         x="395.04712"
         y="588.41229"
         style="font-size:61.0372963px;font-style:normal;font-variant:normal;font-weight:600;font-stretch:normal;fill:#004cff;fill-opacity:1;font-family:Source Sans Pro;-inkscape-font-specification:Source Sans Pro">Topic</tspan></text>
    <path
       transform="matrix(0.87196137,0,0,0.87196137,5.8022585,224.75585)"
       sodipodi:type="arc"
       style="fill:#e5e5e5;fill-opacity:1;stroke:none"
       id="path4227-9"
       sodipodi:cx="134.74345"
       sodipodi:cy="496.48898"
       sodipodi:rx="28.791338"
       sodipodi:ry="28.791338"
       d="m 163.53479,496.48898 c 0,15.90102 -12.89032,28.79134 -28.79134,28.79134 -15.90101,0 -28.79133,-12.89032 -28.79133,-28.79134 0,-15.90101 12.89032,-28.79133 28.79133,-28.79133 15.90102,0 28.79134,12.89032 28.79134,28.79133 z" />
    <path
       transform="matrix(1.3602597,0,0,1.3602597,4.2758585,-28.725118)"
       sodipodi:type="arc"
       style="fill:#b0b0b0;fill-opacity:1;stroke:none"
       id="path4227-8-4"
       sodipodi:cx="134.74345"
       sodipodi:cy="496.48898"
       sodipodi:rx="28.791338"
       sodipodi:ry="28.791338"
       d="m 163.53479,496.48898 c 0,15.90102 -12.89032,28.79134 -28.79134,28.79134 -15.90101,0 -28.79133,-12.89032 -28.79133,-28.79134 0,-15.90101 12.89032,-28.79133 28.79133,-28.79133 15.90102,0 28.79134,12.89032 28.79134,28.79133 z" />
    <path
       sodipodi:type="arc"
       style="fill:#fafafa;fill-opacity:1;stroke:none"
       id="path4276-3"
       sodipodi:cx="154.8974"
       sodipodi:cy="545.43427"
       sodipodi:rx="20.15394"
       sodipodi:ry="20.15394"
       d="m 175.05134,545.43427 c 0,11.13071 -9.02323,20.15394 -20.15394,20.15394 -11.13071,0 -20.15394,-9.02323 -20.15394,-20.15394 0,-11.13072 9.02323,-20.15395 20.15394,-20.15395 11.13071,0 20.15394,9.02323 20.15394,20.15395 z"
       transform="matrix(0.87196137,0,0,0.87196137,34.923858,171.03126)" />
    <path
       sodipodi:type="arc"
       style="fill:#e0e0e0;fill-opacity:1;stroke:none"
       id="path4278-8"
       sodipodi:cx="382.34897"
       sodipodi:cy="571.34644"
       sodipodi:rx="62.189289"
       sodipodi:ry="62.189289"
       d="m 444.53826,571.34644 c 0,34.34619 -27.8431,62.18928 -62.18929,62.18928 -34.3462,0 -62.18929,-27.84309 -62.18929,-62.18928 0,-34.3462 27.84309,-62.18929 62.18929,-62.18929 34.34619,0 62.18929,27.84309 62.18929,62.18929 z"
       transform="matrix(0.87196137,0,0,0.87196137,-163.405,166.01033)" />
    <path
       sodipodi:type="arc"
       style="fill:#676767;fill-opacity:1;stroke:none"
       id="path4280-9"
       sodipodi:cx="185.99203"
       sodipodi:cy="566.73987"
       sodipodi:rx="29.942991"
       sodipodi:ry="29.942991"
       d="m 215.93503,566.73987 c 0,16.53706 -13.40594,29.94299 -29.943,29.94299 -16.53705,0 -29.94299,-13.40593 -29.94299,-29.94299 0,-16.53706 13.40594,-29.94299 29.94299,-29.94299 16.53706,0 29.943,13.40593 29.943,29.94299 z"
       transform="matrix(0.87196137,0,0,0.87196137,38.438558,191.61731)" />
    <path
       transform="matrix(1.0463536,0,0,1.0463536,4.8984585,120.59849)"
       sodipodi:type="arc"
       style="fill:#8a8a8a;fill-opacity:1;stroke:none"
       id="path4227-8-3-7"
       sodipodi:cx="134.74345"
       sodipodi:cy="496.48898"
       sodipodi:rx="28.791338"
       sodipodi:ry="28.791338"
       d="m 163.53479,496.48898 c 0,15.90102 -12.89032,28.79134 -28.79134,28.79134 -15.90101,0 -28.79133,-12.89032 -28.79133,-28.79134 0,-15.90101 12.89032,-28.79133 28.79133,-28.79133 15.90102,0 28.79134,12.89032 28.79134,28.79133 z" />
    <path
       sodipodi:type="arc"
       style="fill:#676767;fill-opacity:1;stroke:none"
       id="path4308-7"
       sodipodi:cx="893.11871"
       sodipodi:cy="505.25238"
       sodipodi:rx="68.397377"
       sodipodi:ry="68.397377"
       d="m 961.51609,505.25238 c 0,37.77483 -30.62255,68.39738 -68.39738,68.39738 -37.77482,0 -68.39737,-30.62255 -68.39737,-68.39738 0,-37.77483 30.62255,-68.39738 68.39737,-68.39738 37.77483,0 68.39738,30.62255 68.39738,68.39738 z"
       transform="matrix(0.87196137,0,0,0.87196137,41.061858,223.96969)" />
    <path
       sodipodi:type="arc"
       style="fill:#c2c2c2;fill-opacity:1;stroke:none"
       id="path4312-4"
       sodipodi:cx="881.97534"
       sodipodi:cy="594.6803"
       sodipodi:rx="34.248859"
       sodipodi:ry="34.248859"
       d="m 916.2242,594.6803 c 0,18.91512 -15.33374,34.24886 -34.24886,34.24886 -18.91512,0 -34.24886,-15.33374 -34.24886,-34.24886 0,-18.91512 15.33374,-34.24886 34.24886,-34.24886 18.91512,0 34.24886,15.33374 34.24886,34.24886 z"
       transform="matrix(0.87196137,0,0,0.87196137,80.554658,145.99202)" />
    <path
       transform="matrix(0.87196137,0,0,0.87196137,54.051958,259.05532)"
       sodipodi:type="arc"
       style="fill:#e7e7e7;fill-opacity:1;stroke:none"
       id="path4314-1"
       sodipodi:cx="833.10889"
       sodipodi:cy="427.85318"
       sodipodi:rx="47.681202"
       sodipodi:ry="47.681202"
       d="m 880.79009,427.85318 c 0,26.3336 -21.3476,47.6812 -47.6812,47.6812 -26.3336,0 -47.68121,-21.3476 -47.68121,-47.6812 0,-26.3336 21.34761,-47.6812 47.68121,-47.6812 26.3336,0 47.6812,21.3476 47.6812,47.6812 z" />
    <path
       transform="matrix(0.87196137,0,0,0.87196137,5.8022585,224.75585)"
       sodipodi:type="arc"
       style="fill:#cacaca;fill-opacity:1;stroke:none"
       id="path4316-3"
       sodipodi:cx="987.3515"
       sodipodi:cy="454.13672"
       sodipodi:rx="18.167536"
       sodipodi:ry="18.167536"
       d="m 1005.519,454.13672 c 0,10.03365 -8.13385,18.16753 -18.1675,18.16753 -10.03365,0 -18.16753,-8.13388 -18.16753,-18.16753 0,-10.03365 8.13388,-18.16754 18.16753,-18.16754 10.03365,0 18.1675,8.13389 18.1675,18.16754 z" />
    <path
       transform="matrix(0.87196137,0,0,0.87196137,35.622158,224.75576)"
       sodipodi:type="arc"
       style="fill:#cacaca;fill-opacity:1;stroke:none"
       id="path4318-6"
       sodipodi:cx="934.98529"
       sodipodi:cy="401.77051"
       sodipodi:rx="34.198689"
       sodipodi:ry="34.198689"
       d="m 969.18398,401.77051 c 0,18.88741 -15.31128,34.19869 -34.19869,34.19869 -18.88741,0 -34.19869,-15.31128 -34.19869,-34.19869 0,-18.88742 15.31128,-34.19869 34.19869,-34.19869 18.88741,0 34.19869,15.31127 34.19869,34.19869 z" />
    <path
       transform="matrix(0.87196137,0,0,0.87196137,5.8022585,224.75585)"
       sodipodi:type="arc"
       style="fill:#4d4d4d;fill-opacity:1;stroke:none"
       id="path4320-7"
       sodipodi:cx="960.4118"
       sodipodi:cy="520.60651"
       sodipodi:rx="25.403576"
       sodipodi:ry="25.403576"
       d="m 985.81538,520.60651 c 0,14.03 -11.37357,25.40357 -25.40358,25.40357 -14.03,0 -25.40357,-11.37357 -25.40357,-25.40357 0,-14.03001 11.37357,-25.40358 25.40357,-25.40358 14.03001,0 25.40358,11.37357 25.40358,25.40358 z" />
    <text
       xml:space="preserve"
       style="font-size:34.87845612px;font-style:normal;font-weight:normal;line-height:125%;letter-spacing:0px;word-spacing:0px;fill:#000000;fill-opacity:1;stroke:none;font-family:sans-serif"
       x="407.93787"
       y="642.15979"
       id="text4322-0"
       sodipodi:linespacing="125%"><tspan
         sodipodi:role="line"
         id="tspan4324-5"
         x="407.93787"
         y="642.15979"
         style="font-style:normal;font-variant:normal;font-weight:600;font-stretch:normal;font-family:Source Sans Pro;-inkscape-font-specification:Source Sans Pro">MATCH?</tspan></text>
    <path
       sodipodi:type="arc"
       style="fill:#ababab;fill-opacity:1;stroke:none"
       id="path4308-7-5"
       sodipodi:cx="893.11871"
       sodipodi:cy="505.25238"
       sodipodi:rx="68.397377"
       sodipodi:ry="68.397377"
       d="m 961.51609,505.25238 c 0,37.77483 -30.62255,68.39738 -68.39738,68.39738 -37.77482,0 -68.39737,-30.62255 -68.39737,-68.39738 0,-37.77483 30.62255,-68.39738 68.39737,-68.39738 37.77483,0 68.39738,30.62255 68.39738,68.39738 z"
       transform="matrix(0.87196137,0,0,0.87196137,-39.8504,191.56621)" />
    <path
       style="fill:none;stroke:#000000;stroke-width:1.54481339;stroke-linecap:butt;stroke-linejoin:miter;stroke-miterlimit:4;stroke-opacity:1;stroke-dasharray:none"
       d="m 174.11096,629.54155 c 4.0547,-38.30413 -91.449402,-6.19834 -58.1217,27.12925 18.303,18.30299 43.9121,-1.14044 54.2267,4.01678 17.3466,8.6734 -2.2548,33.51741 11.0461,40.16794 7.5024,3.75118 61.807,9.13537 51.2141,-12.05042 -14.5024,-29.00474 -44.8446,-24.27531 -58.3652,-59.26355 z"
       id="path14924"
       inkscape:connector-curvature="0" />
    <path
       style="fill:none;stroke:#000000;stroke-width:1.54481339;stroke-linecap:butt;stroke-linejoin:miter;stroke-miterlimit:4;stroke-opacity:1;stroke-dasharray:none"
       d="m 815.57536,629.53894 c 4.0547,-38.30413 -91.4494,-6.19843 -58.1217,27.12924 18.303,18.303 43.9121,-1.14052 54.2267,4.01678 17.3467,8.6734 -2.2548,33.51741 11.0462,40.16795 7.5023,3.75118 61.8069,9.13536 51.214,-12.05042 -14.5024,-29.00475 -44.8445,-24.27532 -58.3652,-59.26355 z"
       id="path14924-8"
       inkscape:connector-curvature="0" />
    <path
       style="fill:none;stroke:#000000;stroke-width:3.08962679;stroke-linecap:butt;stroke-linejoin:miter;stroke-miterlimit:4;stroke-opacity:1;stroke-dasharray:none"
       d="m 189.65906,652.04792 563.9674,0"
       id="path4288-1"
       inkscape:connector-curvature="0" />
    <flowRoot
       xml:space="preserve"
       id="flowRoot4418-4"
       style="font-size:40px;font-style:normal;font-weight:normal;line-height:125%;letter-spacing:0px;word-spacing:0px;fill:#000000;fill-opacity:1;stroke:none;font-family:sans-serif"
       transform="matrix(0.86591789,0,0,0.86591789,-73.30019,-84.089928)"><flowRegion
         id="flowRegion4420-92"><rect
           id="rect4422-76"
           width="928.57141"
           height="168.57143"
           x="220"
           y="438.28574"
           style="fill:#000000;fill-opacity:1" /></flowRegion><flowPara
         id="flowPara4424-4"
         style="font-size:70px;font-style:normal;font-variant:normal;font-weight:600;font-stretch:normal;fill:#000000;fill-opacity:1;font-family:Source Sans Pro;-inkscape-font-specification:Source Sans Pro">Writer</flowPara></flowRoot>    <flowRoot
       xml:space="preserve"
       id="flowRoot4418-5-9"
       style="font-size:40px;font-style:normal;font-weight:normal;line-height:125%;letter-spacing:0px;word-spacing:0px;fill:#000005;fill-opacity:1;stroke:none;font-family:sans-serif"
       transform="matrix(0.86591789,0,0,0.86591789,505.6135,-139.00098)"><flowRegion
         id="flowRegion4420-9-2"><rect
           id="rect4422-7-9"
           width="928.57141"
           height="168.57143"
           x="220"
           y="438.28574"
           style="fill:#000005;fill-opacity:1" /></flowRegion><flowPara
         id="flowPara4424-3-2"
         style="font-size:70px;font-style:normal;font-variant:normal;font-weight:600;font-stretch:normal;fill:#000005;fill-opacity:1;font-family:Source Sans Pro;-inkscape-font-specification:Source Sans Pro">Reader</flowPara></flowRoot>    <flowRoot
       xml:space="preserve"
       id="flowRoot4418-1"
       style="font-size:40px;font-style:normal;font-weight:normal;line-height:125%;letter-spacing:0px;word-spacing:0px;fill:#000000;fill-opacity:1;stroke:none;font-family:sans-serif"
       transform="matrix(0.86591789,0,0,0.86591789,-125.59758,315.98876)"><flowRegion
         id="flowRegion4420-4"><rect
           id="rect4422-0"
           width="928.57141"
           height="168.57143"
           x="220"
           y="438.28574"
           style="fill:#000000;fill-opacity:1" /></flowRegion><flowPara
         id="flowPara4424-9"
         style="font-size:70px;font-style:normal;font-variant:normal;font-weight:600;font-stretch:normal;fill:#000000;fill-opacity:1;font-family:Source Sans Pro;-inkscape-font-specification:Source Sans Pro">Writer</flowPara></flowRoot>    <flowRoot
       xml:space="preserve"
       id="flowRoot4418-5-8"
       style="font-size:40px;font-style:normal;font-weight:normal;line-height:125%;letter-spacing:0px;word-spacing:0px;fill:#000005;fill-opacity:1;stroke:none;font-family:sans-serif"
       transform="matrix(0.86591789,0,0,0.86591789,503.72,328.13593)"><flowRegion
         id="flowRegion4420-9-5"><rect
           id="rect4422-7-6"
           width="928.57141"
           height="168.57143"
           x="220"
           y="438.28574"
           style="fill:#000005;fill-opacity:1" /></flowRegion><flowPara
         id="flowPara4424-3-9"
         style="font-size:70px;font-style:normal;font-variant:normal;font-weight:600;font-stretch:normal;fill:#000005;fill-opacity:1;font-family:Source Sans Pro;-inkscape-font-specification:Source Sans Pro">Reader</flowPara></flowRoot>  </g>
</svg>
